<?xml version="1.0" encoding="utf-8"?>
<!-- Generator: Adobe Illustrator 23.0.1, SVG Export Plug-In . SVG Version: 6.00 Build 0)  -->
<svg version="1.1" id="Layer_1" xmlns="http://www.w3.org/2000/svg" xmlns:xlink="http://www.w3.org/1999/xlink" x="0px" y="0px"
	 viewBox="0 0 56.7 87.9" style="enable-background:new 0 0 56.7 87.9;" xml:space="preserve">
<style type="text/css">
	.st0{fill:#0974BA;}
	.st1{fill:#434DA0;}
	.st2{fill:#F16622;}
	.st3{fill:#434DA1;}
	.st4{fill:#4F4F4F;}
	.st5{fill:#505151;}
	.st6{fill:#1477BC;}
	.st7{fill:#0F76BB;}
	.st8{fill:#0E74BA;}
	.st9{fill:#0E75BB;}
	.st10{fill:#1176BC;}
	.st11{fill:#1074BB;}
	.st12{fill:#0D74BA;}
	.st13{fill:#0A74BA;}
	.st14{fill:#454FA1;}
	.st15{fill:#5C5B5B;}
	.st16{fill:#5A5A59;}
	.st17{fill:#575756;}
	.st18{fill:#575757;}
	.st19{fill:#7B7875;}
	.st20{fill:#6F9ECC;}
</style>
<g>
	<g id="Layer_1-2">
		<path class="st0" d="M19.4,48.7c4.7,1.1,8.8,3.8,13.2,5.6c6.5,2.6,13.2,3,19.8,0.3c0.3-0.1,0.6-0.2,0.8-0.2
			c-0.3,0.5-0.7,0.8-1.2,1c-6.2,3.5-12.7,3.7-19.3,1.5c-3.1-1-6-2.8-9-4.1c-6.9-3-13.9-3.6-21-0.8C2.5,52,2.3,52,2.3,51.7
			c2-1.4,4.2-2.4,6.7-2.9c1.1-0.2,1.4-0.8,1.4-1.8c0-11.3,0-22.6,0-33.9c0-1.9,0-1.9,1.9-1.9c2.8,0,5.7,0.1,8.5,0
			c1,0,1.3,0.4,1.3,1.3c0,4,0,8,0,12c0,1,0.3,1.4,1.3,1.3c0.7-0.1,1.4,0,2,0c0.9-0.1,1.1,0.3,1.1,1.1c0,3.2,0,6.5,0,9.7
			c0,0.8-0.3,1.7-1,2.2c-0.4-0.3-0.2-0.7-0.2-1c0-2.9,0-5.8,0-8.8c0-1-0.3-1.4-1.4-1.4c-3,0.1-3.1,0-3-3.1c0-3.3,0-6.6,0.1-9.8
			c0-1.5-0.1-1.6-1.6-1.6c-2.1,0-4.2,0-6.4,0c-0.9,0-1.3,0.2-1.3,1.2c0,11,0,22,0,33c0,0.9,0.3,1.2,1.2,1.1c2.1-0.1,4.2,0,6.3,0.3
			C19.2,48.6,19.3,48.6,19.4,48.7z"/>
		<path class="st1" d="M35.3,63.7c1,0,1.8,0,2.6,0c0.6,0,0.7,0.4,0.9,0.8l4,8.3c0.6-1.3,1.1-2.5,1.6-3.7c0.6-1.4,1.3-2.8,1.8-4.3
			c0.2-0.8,1-1.4,1.8-1.2c0,0,0,0,0,0c0.5,0,1,0,1.5,0c0,0.2,0.1,0.3,0,0.3c-2,4.5-4.2,8.8-6.7,13c-1.2,1.8-2.9,3.2-5,3.8
			c-1,0.3-1.2-0.2-1.5-0.9s0.2-0.9,0.7-1.1c1.4-0.5,2.5-1.4,3.4-2.5c0.6-0.6,0.6-1.5,0.2-2.2c-1.7-3.1-3.3-6.3-5-9.5
			C35.6,64.4,35.5,64.1,35.3,63.7z"/>
		<path class="st2" d="M22.7,19.5c-0.3-0.9,0-1.9,0.8-2.4c3.8-3,9.2-2.8,12.8,0.5c2.4,2.1,4.2,4.8,5.4,7.8
			c1.9,4.9,2.6,10.2,2.2,15.5c-0.9-0.4-0.8-1.2-0.8-1.9c-0.1-4.4-1.1-8.7-3-12.7c-1-2.1-2.4-4.1-4.1-5.7c-3.4-3.2-8.3-4.3-12.7-1.3
			C23,19.3,22.9,19.4,22.7,19.5z"/>
		<path class="st3" d="M27,69.1c0-0.9-0.1-1.8,0-2.6s-0.3-1.3-1.2-1.2c-0.4,0-1.2,0.4-1.2-0.6c0-0.7,0-1.2,0.9-1
			c1.2,0.2,1.7-0.2,1.5-1.5c-0.1-0.5-0.3-1.2,0.3-1.4c0.7-0.2,1.5-0.4,2.2-0.5c0.4,0,0.3,0.3,0.3,0.5c0.1,0.9-0.5,2.2,0.3,2.7
			s1.9,0.2,2.8,0.1s1,0.3,1,1c0,0.6-0.3,0.7-0.7,0.7c-0.8,0-1.6,0-2.4,0s-1,0.1-1,0.9c0.1,1.7,0,3.4,0,5c0,2.1,0.6,2.6,2.7,2.6
			c0.6,0,1.2-0.3,1.2,0.8s-0.6,1-1.2,1c-0.6,0-1.3,0-1.9,0c-1.8,0.1-3.4-1.3-3.5-3.1c0-0.1,0-0.2,0-0.3C27,71.1,27,70.1,27,69.1z"/>
		<path class="st1" d="M11.8,75.7c-1.6,0.1-3.3-0.2-4.8-0.8c-2.9-1.2-4.2-4.6-3-7.4c0.5-1.1,1.3-2.1,2.4-2.7c2.8-1.7,5.8-1.7,8.8-1
			c0.4,0.1,0.7,0.2,0.4,0.7s-0.1,1.3-1.1,1c-1.6-0.5-3.3-0.5-4.9,0c-1.8,0.5-3.1,2.1-3.1,4c0,1.9,1.3,3.5,3.1,4
			c1.6,0.5,3.3,0.5,4.8,0c0.8-0.3,1,0.1,1.2,0.7c0.3,0.8-0.3,0.9-0.8,1.1C13.8,75.5,12.8,75.7,11.8,75.7z"/>
		<path class="st4" d="M19.9,47.3C23,43.2,26,39,29.1,34.9c0.3-0.4,0.6-0.7,1-0.1l9.6,12.8c0,0,0,0.1,0,0.3
			c-0.5,0.2-0.6-0.3-0.8-0.5c-2.8-3-5.7-6-8.5-9c-0.6-0.7-1-0.7-1.7,0c-2.9,3.1-5.8,6.1-8.7,9.1C19.9,47.6,19.8,47.5,19.9,47.3z"/>
		<path class="st3" d="M21.8,69.7c0,1.5-0.1,3,0,4.6c0.1,1-0.3,1.4-1.3,1.2c-0.3,0-0.6,0-0.8,0c-0.5,0-0.8-0.1-0.8-0.7
			c0-3.4,0-6.9,0-10.3c0-0.6,0.2-0.7,0.8-0.7c2.1-0.1,2.1-0.1,2.1,1.9L21.8,69.7z"/>
		<path class="st5" d="M48,48.6c-1.9-2.1-3.8-4-5.6-6c-0.7-0.8-1.2-1-1.9,0c-0.5,0.6-0.9,1.1-1.5,1.6c-0.2,0.3-0.5,0.5-0.8,0.2
			c-0.2-0.2-0.2-0.6,0-0.9c1-1.2,1.9-2.5,2.8-3.7c0.3-0.3,0.5-0.4,0.8,0c2,2.7,4.1,5.4,6.1,8.1C48,48,48,48.3,48,48.6z"/>
		<path class="st6" d="M12.8,39.4c0.2-0.5-0.4-1.3,0.5-1.7c0.6-0.4,1.4-0.3,1.8,0.3c0.2,0.3,0.3,0.6,0.2,0.9c0,0.4,0,0.7,0,1.1
			c0,0.9,0,1.7-1.3,1.6s-1.2-0.8-1.2-1.6L12.8,39.4z"/>
		<path class="st7" d="M21.1,39.4c0.2-0.5-0.4-1.3,0.5-1.7c0.6-0.4,1.4-0.2,1.7,0.4c0.2,0.2,0.2,0.5,0.2,0.8c0,0.3,0,0.7,0,1.1
			c0,0.9,0,1.7-1.3,1.6s-1.2-0.8-1.1-1.6C21.1,39.8,21.1,39.6,21.1,39.4z"/>
		<path class="st8" d="M21.1,32.3c0-2,0.2-2.2,1.6-2c0.1,0,0.2,0,0.2,0c0.5,0.2,0.9,2.4,0.5,3.3s-1.3,0.6-1.9,0.4
			C20.8,33.7,21.3,32.8,21.1,32.3z"/>
		<path class="st9" d="M12.8,32.1c0.2-0.5-0.4-1.5,0.7-1.8c1.4-0.3,1.7,0,1.7,1.4c0,0.3,0,0.6,0,1c0,0.9-0.2,1.5-1.3,1.5
			s-1.1-0.7-1.1-1.5L12.8,32.1z"/>
		<path class="st10" d="M15.2,17.3c0,2.1-0.3,2.4-1.7,2.2c-0.3,0-0.6-0.1-0.6-0.4c-0.2-1-0.2-2.1,0-3.1c0.2-0.7,0.9-0.4,1.5-0.4
			c0.4-0.1,0.7,0.2,0.8,0.5c0,0.1,0,0.1,0,0.2C15.2,16.8,15.2,17.2,15.2,17.3z"/>
		<path class="st11" d="M12.8,24.8c0.2-0.6-0.4-1.6,0.9-1.8s1.5,0,1.6,1.4c0,0.3,0,0.6,0,0.8c0,0.9,0.1,1.6-1.2,1.6
			s-1.2-0.8-1.2-1.6L12.8,24.8z"/>
		<path class="st9" d="M19.3,39.6v0.7c0,0.6,0.1,1.2-0.9,1.2s-1.5-0.1-1.5-1.2c0-0.4,0-0.8,0-1.2c-0.1-0.9,0-1.7,1.3-1.7
			s1.1,0.8,1.1,1.6V39.6z"/>
		<path class="st12" d="M19.3,17.6c0,1.9-0.2,2.1-1.6,1.9c-0.4-0.1-0.6-0.2-0.7-0.6c-0.1-0.9-0.1-1.8,0-2.7c0.1-0.8,0.9-0.5,1.4-0.6
			s0.9,0.1,0.9,0.7C19.3,16.9,19.3,17.2,19.3,17.6z"/>
		<path class="st13" d="M19.3,32.3c0,1.8-0.3,2.2-1.7,1.8c-0.3-0.1-0.5-0.2-0.6-0.5c-0.2-0.9-0.2-1.9,0-2.9c0.2-0.8,0.9-0.4,1.4-0.5
			c0.3-0.1,0.7,0.1,0.8,0.4c0,0.1,0,0.1,0,0.2C19.3,31.4,19.3,31.8,19.3,32.3z"/>
		<path class="st14" d="M20.4,58.8c0.8,0.1,1.6,0.2,1.7,1.3s-0.9,1.3-1.7,1.3c-1,0-1.8-0.5-1.8-1.3C18.7,59.1,19.4,58.9,20.4,58.8z"
			/>
		<path class="st0" d="M19.3,25c-0.1,0.5,0.4,1.3-0.5,1.7c-1,0.5-1.9,0-1.9-1.2c0-0.4,0-0.7,0-1.1c-0.1-0.9,0.1-1.5,1.3-1.5
			s1.1,0.7,1.1,1.5L19.3,25z"/>
		<path class="st15" d="M29.8,48.7c0-1.6,0.2-1.9,1.4-1.8c0.1,0,0.3,0,0.4,0c0.7,0.6,0.2,1.2-0.1,1.8s-0.6,1.5-1.4,1.3
			C29.5,49.9,29.9,49.1,29.8,48.7z"/>
		<path class="st16" d="M29.5,48.9c-0.1,0.3,0.3,1-0.3,1.1s-0.9-0.4-1.2-0.9c-0.2-0.3-0.3-0.6-0.4-1c-0.1-0.5-0.6-1.1,0.4-1.3
			c0.8-0.1,1.4,0,1.4,1C29.5,48.2,29.5,48.5,29.5,48.9z"/>
		<path class="st17" d="M29.8,44.4c0.1-0.4-0.2-1.1,0.4-1.3s0.9,0.5,1.2,1c0.1,0.2,0.2,0.4,0.3,0.6c0.1,0.4,0.5,1,0.1,1.3
			c-0.4,0.2-0.9,0.2-1.4,0c-0.6-0.2-0.5-0.7-0.5-1.2C29.8,44.8,29.8,44.7,29.8,44.4z"/>
		<path class="st18" d="M29.5,44.5c0,1.6-0.2,1.8-1.4,1.7c-0.1,0-0.4,0-0.4-0.1c-0.5-0.6,0-1.2,0.2-1.8s0.6-1.4,1.3-1.2
			S29.4,44.1,29.5,44.5z"/>
		<path class="st19" d="M19.9,47.3l0.3,0.3l-0.8,1.1L19,48.5C19.2,48,19.5,47.6,19.9,47.3z"/>
		<path class="st20" d="M2.2,51.7l0.5,0.2c-0.3,0.3-0.7,0.5-1.2,0.5C1.5,51.9,1.9,51.8,2.2,51.7z"/>
	</g>
</g>
</svg>
